<svg xmlns="http://www.w3.org/2000/svg" viewBox="0 0 500 400"><defs><linearGradient id="body" x2="1" y2="1"><stop stop-color="#242727"/><stop offset="1" stop-color="#070908"/></linearGradient><pattern id="dots" width="20" height="20" patternUnits="userSpaceOnUse"><circle cx="2" cy="2" r="1" fill="#141814" opacity=".2"/></pattern></defs><rect width="500" height="400" fill="url(#dots)"/><g fill="none" stroke="#141814" opacity=".12"><circle cx="335" cy="235" r="105"/><circle cx="335" cy="235" r="140"/><circle cx="335" cy="235" r="175"/></g><path d="M184 396 312 396 394 263 262 263Z" fill="#141814" opacity=".06"/><g transform="rotate(-12 325 220)" fill="url(#body)"><circle cx="337" cy="104" r="31"/><path d="m317 131 38 3 23 58-32 61-55-12 3-69Z"/><path d="m307 153-48 45-55-15-10 23 70 32 62-51Z"/><path d="m355 155 51 39 39-33 15 20-51 53-66-39Z"/><path d="m294 232 48 19-35 58-61 52-22-20 45-63Z"/><path d="m342 239 24-18 9 80 47 65-26 21-59-71Z"/><path d="m237 334-19 23-42 5 1 20 54-2 27-26ZM394 361l-4 25 39 15 13-11-24-30Z"/></g><g fill="#141814" transform="rotate(-18 447 170)"><rect x="421" y="155" width="57" height="9" rx="4"/><rect x="412" y="139" width="16" height="43" rx="4"/><rect x="471" y="139" width="16" height="43" rx="4"/></g><path d="m388 45 50 0 0 50m-51 0 50-50" fill="none" stroke="#141814" stroke-width="5"/><text x="186" y="393" font-family="Arial" font-size="10" letter-spacing="4" fill="#141814" opacity=".5">EVERY REP COUNTS</text></svg>
